REM DIRINDEX 1\2\3,1\2\4,1\2\5,1\2\6
REM DIRNAME cjc157,folder01,folder02,folder03,folder04,folder05
TITLE ""
FILE "100 100.mp3" MP3
  TRACK 01 AUDIO
    TITLE "0:"
    INDEX 01 00:00:00
  TRACK 02 AUDIO
    TITLE "3:cjc157_3769"
    INDEX 01 00:00:09
  TRACK 03 AUDIO
    TITLE "0:"
    INDEX 01 00:01:01
  TRACK 04 AUDIO
    TITLE "4:cjc157_3770"
    INDEX 01 00:01:46
  TRACK 05 AUDIO
    TITLE "0:"
    INDEX 01 00:02:32
  TRACK 06 AUDIO
    TITLE "5:cjc157_3771"
    INDEX 01 00:03:21
  TRACK 07 AUDIO
    TITLE "0:"
    INDEX 01 00:05:42
  TRACK 08 AUDIO
    TITLE "5:cjc157_3772"
    INDEX 01 00:06:08
  TRACK 09 AUDIO
    TITLE "0:"
    INDEX 01 00:08:73
  TRACK 10 AUDIO
    TITLE "3:cjc157_3773"
    INDEX 01 00:09:44
  TRACK 11 AUDIO
    TITLE "0:"
    INDEX 01 00:10:63
  TRACK 12 AUDIO
    TITLE "4:cjc157_3774"
    INDEX 01 00:11:35
  TRACK 13 AUDIO
    TITLE "0:"
    INDEX 01 00:12:60
  TRACK 14 AUDIO
    TITLE "5:cjc157_3775"
    INDEX 01 00:13:30
  TRACK 15 AUDIO
    TITLE "0:"
    INDEX 01 00:16:32
  TRACK 16 AUDIO
    TITLE "3:cjc157_3776"
    INDEX 01 00:17:02
  TRACK 17 AUDIO
    TITLE "0:"
    INDEX 01 00:18:07
  TRACK 18 AUDIO
    TITLE "4:cjc157_3777"
    INDEX 01 00:18:52
  TRACK 19 AUDIO
    TITLE "0:"
    INDEX 01 00:20:08
  TRACK 20 AUDIO
    TITLE "5:cjc157_3778"
    INDEX 01 00:20:51
  TRACK 21 AUDIO
    TITLE "0:"
    INDEX 01 00:23:06
  TRACK 22 AUDIO
    TITLE "3:cjc157_3779"
    INDEX 01 00:23:48
  TRACK 23 AUDIO
    TITLE "0:"
    INDEX 01 00:24:67
  TRACK 24 AUDIO
    TITLE "4:cjc157_3780"
    INDEX 01 00:25:39
  TRACK 25 AUDIO
    TITLE "0:"
    INDEX 01 00:26:71
  TRACK 26 AUDIO
    TITLE "5:cjc157_3781"
    INDEX 01 00:27:39
  TRACK 27 AUDIO
    TITLE "0:"
    INDEX 01 00:30:38
  TRACK 28 AUDIO
    TITLE "3:cjc157_3782"
    INDEX 01 00:31:08
  TRACK 29 AUDIO
    TITLE "0:"
    INDEX 01 00:32:37
  TRACK 30 AUDIO
    TITLE "4:cjc157_3783"
    INDEX 01 00:33:09
  TRACK 31 AUDIO
    TITLE "0:"
    INDEX 01 00:34:22
  TRACK 32 AUDIO
    TITLE "5:cjc157_3784"
    INDEX 01 00:34:67
  TRACK 33 AUDIO
    TITLE "0:"
    INDEX 01 00:36:58
  TRACK 34 AUDIO
    TITLE "5:cjc157_3785"
    INDEX 01 00:37:24
  TRACK 35 AUDIO
    TITLE "0:"
    INDEX 01 00:38:73
  TRACK 36 AUDIO
    TITLE "3:cjc157_3786"
    INDEX 01 00:39:45
  TRACK 37 AUDIO
    TITLE "0:"
    INDEX 01 00:40:66
  TRACK 38 AUDIO
    TITLE "4:cjc157_3787"
    INDEX 01 00:41:38
  TRACK 39 AUDIO
    TITLE "0:"
    INDEX 01 00:42:74
  TRACK 40 AUDIO
    TITLE "5:cjc157_3788"
    INDEX 01 00:43:46
  TRACK 41 AUDIO
    TITLE "0:"
    INDEX 01 00:45:65
  TRACK 42 AUDIO
    TITLE "5:cjc157_3789"
    INDEX 01 00:46:33
  TRACK 43 AUDIO
    TITLE "0:"
    INDEX 01 00:49:06
  TRACK 44 AUDIO
    TITLE "5:cjc157_3790"
    INDEX 01 00:49:45
  TRACK 45 AUDIO
    TITLE "0:"
    INDEX 01 00:51:54
  TRACK 46 AUDIO
    TITLE "3:cjc157_3791"
    INDEX 01 00:52:24
  TRACK 47 AUDIO
    TITLE "0:"
    INDEX 01 00:53:41
  TRACK 48 AUDIO
    TITLE "4:cjc157_3792"
    INDEX 01 00:54:15
  TRACK 49 AUDIO
    TITLE "0:"
    INDEX 01 00:55:32
  TRACK 50 AUDIO
    TITLE "5:cjc157_3793"
    INDEX 01 00:56:08
  TRACK 51 AUDIO
    TITLE "0:"
    INDEX 01 00:58:62
  TRACK 52 AUDIO
    TITLE "5:cjc157_3794"
    INDEX 01 00:59:30
  TRACK 53 AUDIO
    TITLE "0:"
    INDEX 01 01:01:40
  TRACK 54 AUDIO
    TITLE "3:cjc157_3795"
    INDEX 01 01:02:12
  TRACK 55 AUDIO
    TITLE "0:"
    INDEX 01 01:03:43
  TRACK 56 AUDIO
    TITLE "4:cjc157_3796"
    INDEX 01 01:04:13
  TRACK 57 AUDIO
    TITLE "0:"
    INDEX 01 01:05:36
  TRACK 58 AUDIO
    TITLE "5:cjc157_3797"
    INDEX 01 01:06:02
  TRACK 59 AUDIO
    TITLE "0:"
    INDEX 01 01:09:12
  TRACK 60 AUDIO
    TITLE "3:cjc157_3798"
    INDEX 01 01:09:57
  TRACK 61 AUDIO
    TITLE "0:"
    INDEX 01 01:10:65
  TRACK 62 AUDIO
    TITLE "4:cjc157_3799"
    INDEX 01 01:11:35
  TRACK 63 AUDIO
    TITLE "0:"
    INDEX 01 01:12:44
  TRACK 64 AUDIO
    TITLE "5:cjc157_3800"
    INDEX 01 01:13:18
  TRACK 65 AUDIO
    TITLE "0:"
    INDEX 01 01:15:11
  TRACK 66 AUDIO
    TITLE "5:cjc157_3801"
    INDEX 01 01:15:58
  TRACK 67 AUDIO
    TITLE "0:"
    INDEX 01 01:17:45
  TRACK 68 AUDIO
    TITLE "3:cjc157_3802"
    INDEX 01 01:18:17
  TRACK 69 AUDIO
    TITLE "0:"
    INDEX 01 01:19:60
  TRACK 70 AUDIO
    TITLE "4:cjc157_3803"
    INDEX 01 01:20:30
  TRACK 71 AUDIO
    TITLE "0:"
    INDEX 01 01:21:45
  TRACK 72 AUDIO
    TITLE "5:cjc157_3804"
    INDEX 01 01:22:19
  TRACK 73 AUDIO
    TITLE "0:"
    INDEX 01 01:24:43
  TRACK 74 AUDIO
    TITLE "5:cjc157_3805"
    INDEX 01 01:25:15
  TRACK 75 AUDIO
    TITLE "0:"
    INDEX 01 01:26:32
